<svg width="217" height="233" viewBox="0 0 217 233" fill="none" xmlns="http://www.w3.org/2000/svg">
<path d="M53.0754 91.0723C68.2033 91.1038 81.4175 99.2702 88.5759 111.437L88.6783 111.634C89.7178 113.406 91.6156 114.579 93.7891 114.579C97.0494 114.579 99.6954 111.933 99.6954 108.673C99.6954 107.586 99.404 106.562 98.8843 105.68L98.9 105.712C90.5683 91.5763 76.2358 81.7483 59.4935 79.7008L59.2336 79.6772L112.705 43.9641C114.28 42.8852 115.304 41.0976 115.304 39.0658C115.304 35.7977 112.658 33.1517 109.39 33.1517C108.177 33.1517 107.051 33.5139 106.114 34.1439L106.137 34.1282L38.7271 79.1496L84.3391 9.2668C84.9455 8.3533 85.2999 7.23505 85.2999 6.03805C85.2999 2.7778 82.6539 0.131798 79.3936 0.131798C77.3304 0.131798 75.5191 1.18705 74.4639 2.78567L74.4481 2.8093L16.496 91.6078L23.7174 26.513C23.741 26.324 23.7489 26.0957 23.7489 25.8673C23.7489 22.6071 21.1029 19.961 17.8426 19.961C14.8186 19.961 12.3223 22.2369 11.9758 25.1743V25.1979L1.32875 121.155C0.903505 123.36 0.604255 125.959 0.494005 128.605V128.707L0.18688 131.503L0.202631 131.652C0.202631 131.825 0.15538 131.983 0.15538 132.156C0.15538 132.156 0.15538 132.164 0.15538 132.172C0.15538 161.396 23.8434 185.084 53.0675 185.084C72.5581 185.084 89.5839 174.547 98.7661 158.86L98.9 158.608C99.3725 157.781 99.6481 156.789 99.6481 155.734C99.6481 152.474 97.0021 149.828 93.7419 149.828C91.5999 149.828 89.7256 150.97 88.6861 152.671L88.6704 152.694C81.4333 165.074 68.2111 173.256 53.0754 173.256C30.4269 173.256 12.0624 154.939 11.9836 132.306L12.9838 123.297C17.189 104.735 33.5296 91.0802 53.0596 91.0487L53.0754 91.0723ZM216.907 100.869C216.915 100.806 216.883 100.751 216.891 100.688C216.891 100.53 216.938 100.381 216.938 100.215C216.931 70.9753 193.227 47.2716 163.987 47.2716C144.488 47.2716 127.455 57.8083 118.265 73.4953L118.131 73.7473C117.658 74.5742 117.383 75.5664 117.383 76.6217C117.383 79.8819 120.029 82.5279 123.289 82.5279C125.431 82.5279 127.305 81.3861 128.345 79.6851L128.36 79.6614C135.605 67.2819 148.835 59.0998 163.979 59.0998C186.628 59.0998 204.992 77.4013 205.11 100.018V100.026L204.102 109.122C199.897 127.699 183.533 141.362 163.971 141.362C148.828 141.362 135.598 133.172 128.471 120.982L128.368 120.785C127.321 119.052 125.439 117.91 123.305 117.91C120.044 117.91 117.398 120.556 117.398 123.817C117.398 124.872 117.674 125.864 118.162 126.715L118.147 126.683C126.486 140.834 140.834 150.686 157.6 152.726L157.852 152.749L104.326 188.494C102.735 189.565 101.704 191.36 101.704 193.4C101.704 196.66 104.35 199.298 107.602 199.298C108.823 199.298 109.957 198.928 110.902 198.29L110.878 198.306L178.351 153.253L132.707 223.207C132.109 224.113 131.755 225.231 131.755 226.428C131.755 229.696 134.401 232.342 137.669 232.342C139.732 232.342 141.543 231.287 142.598 229.688L142.614 229.664L200.59 140.811L193.361 205.945C193.337 206.134 193.329 206.354 193.329 206.575C193.329 209.615 195.613 212.119 198.566 212.465H198.59C198.802 212.481 199.023 212.497 199.235 212.497C202.267 212.497 204.772 210.205 205.102 207.26V207.236L215.773 111.185C216.135 109.24 216.403 106.909 216.521 104.546L216.529 104.42L216.907 100.869Z" fill="#434343"/>
</svg>
